<svg width="45" height="45" viewBox="0 0 45 45" fill="none" xmlns="http://www.w3.org/2000/svg">
<path opacity="0.4" d="M22.7571 40.75C32.9869 40.75 41.2798 32.4571 41.2798 22.2273C41.2798 11.9975 32.9869 3.70459 22.7571 3.70459C12.5273 3.70459 4.23438 11.9975 4.23438 22.2273C4.23438 32.4571 12.5273 40.75 22.7571 40.75Z" fill="#292D32"/>
<path d="M20.4227 30.155C20.0707 30.155 19.7188 30.0254 19.441 29.7475C18.9038 29.2104 18.9038 28.3213 19.441 27.7841L24.9978 22.2273L19.441 16.6705C18.9038 16.1333 18.9038 15.2442 19.441 14.7071C19.9781 14.1699 20.8672 14.1699 21.4044 14.7071L27.9429 21.2456C28.48 21.7828 28.48 22.6718 27.9429 23.209L21.4044 29.7475C21.1265 30.0254 20.7746 30.155 20.4227 30.155Z" fill="#292D32"/>
</svg>
