<svg width="45" height="45" viewBox="0 0 45 45" fill="none" xmlns="http://www.w3.org/2000/svg">
<path opacity="0.4" d="M22.302 40.75C32.5318 40.75 40.8248 32.4571 40.8248 22.2273C40.8248 11.9975 32.5318 3.70459 22.302 3.70459C12.0722 3.70459 3.7793 11.9975 3.7793 22.2273C3.7793 32.4571 12.0722 40.75 22.302 40.75Z" fill="#292D32"/>
<path d="M24.636 30.155C24.2841 30.155 23.9321 30.0254 23.6543 29.7475L17.1158 23.209C16.5786 22.6718 16.5786 21.7828 17.1158 21.2456L23.6543 14.7071C24.1914 14.1699 25.0805 14.1699 25.6177 14.7071C26.1549 15.2442 26.1549 16.1333 25.6177 16.6705L20.0609 22.2273L25.6177 27.7841C26.1549 28.3213 26.1549 29.2104 25.6177 29.7475C25.3584 30.0254 25.0064 30.155 24.636 30.155Z" fill="#292D32"/>
</svg>
